<svg width="153" height="30" viewBox="0 0 153 30" fill="none" xmlns="http://www.w3.org/2000/svg">
<path d="M2.36 23C3.18667 23.4267 4.24 23.8533 5.52 24.28C6.8 24.7067 8.01333 24.92 9.16 24.92C10.7867 24.92 12 24.6667 12.8 24.16C13.6267 23.6533 14.04 22.92 14.04 21.96C14.04 21.0533 13.4933 20.2533 12.4 19.56C11.3333 18.84 10.1467 18.1467 8.84 17.48C6.92 16.4933 5.08 15.3333 3.32 14C1.56 12.6667 0.693333 10.8133 0.72 8.44C0.746667 6.38667 1.56 4.66667 3.16 3.28C4.78667 1.86667 7.09333 1.16 10.08 1.16C11.44 1.16 12.8 1.37333 14.16 1.8C15.52 2.22667 16.72 2.69333 17.76 3.2L16.04 7.36C15.2133 6.96 14.32 6.58667 13.36 6.24C12.4 5.86667 11.3333 5.68 10.16 5.68C9.01333 5.68 8.04 5.90667 7.24 6.36C6.46667 6.81333 6.08 7.50667 6.08 8.44C6.08 9.45333 6.58667 10.2933 7.6 10.96C8.61333 11.6267 9.81333 12.3333 11.2 13.08C13.1467 14.0667 15 15.2267 16.76 16.56C18.5467 17.8933 19.4267 19.72 19.4 22.04C19.3733 24.2 18.4933 25.9867 16.76 27.4C15.0267 28.8133 12.52 29.52 9.24 29.52C8.09333 29.52 6.61333 29.2667 4.8 28.76C3.01333 28.2533 1.81333 27.7333 1.2 27.2L2.36 23ZM27.8303 11.68C28.7103 10.8 29.8036 10.1067 31.1103 9.6C32.4436 9.09333 33.6303 8.84 34.6703 8.84C37.3103 8.84 39.177 9.61333 40.2703 11.16C41.3903 12.7067 41.9503 14.6 41.9503 16.84V29H36.7503V17.08C36.7503 15.8533 36.457 14.92 35.8703 14.28C35.2836 13.6133 34.4303 13.28 33.3103 13.28C32.5636 13.28 31.777 13.48 30.9503 13.88C30.1503 14.2533 29.417 14.6933 28.7503 15.2V29H23.5503V9.6H26.2703L27.8303 11.68ZM55.7134 29.48C52.6468 29.4533 50.2468 28.52 48.5134 26.68C46.8068 24.84 45.9534 22.36 45.9534 19.24C45.9534 16.1467 46.8468 13.68 48.6334 11.84C50.4468 10 52.9134 9.08 56.0334 9.08C59.2601 9.08 61.7534 10.04 63.5134 11.96C65.3001 13.8533 66.1934 16.3467 66.1934 19.44C66.1934 22.5333 65.2334 24.9733 63.3134 26.76C61.3934 28.5467 58.8601 29.4533 55.7134 29.48ZM60.8334 19.44C60.8334 17.6 60.4201 16.16 59.5934 15.12C58.7934 14.0533 57.6468 13.52 56.1534 13.52C54.6334 13.52 53.4468 13.9867 52.5934 14.92C51.7401 15.8533 51.3134 17.28 51.3134 19.2C51.3134 21.12 51.6734 22.5733 52.3934 23.56C53.1401 24.5467 54.2734 25.04 55.7934 25.04C57.2868 25.04 58.5001 24.6 59.4334 23.72C60.3668 22.8133 60.8334 21.3867 60.8334 19.44ZM75.7872 0.759999V10.2C76.5605 9.77333 77.3739 9.44 78.2272 9.2C79.1072 8.96 79.8939 8.84 80.5872 8.84C83.4405 8.84 85.6272 9.82667 87.1472 11.8C88.6672 13.7733 89.4272 16.2267 89.4272 19.16C89.4272 22.0933 88.6405 24.5467 87.0672 26.52C85.5205 28.4933 83.3605 29.48 80.5872 29.48C79.6805 29.48 78.6672 29.2933 77.5472 28.92C76.4272 28.5467 75.4272 28.0267 74.5472 27.36L73.2672 29H70.6272V1.2L75.7872 0.759999ZM79.2272 25.04C81.0139 25.04 82.2672 24.4 82.9872 23.12C83.7072 21.8133 84.0672 20.4933 84.0672 19.16C84.0672 17.64 83.7472 16.28 83.1072 15.08C82.4672 13.88 81.1739 13.28 79.2272 13.28C78.6672 13.28 78.0805 13.3867 77.4672 13.6C76.8805 13.7867 76.3205 14.0533 75.7872 14.4V23.92C76.3205 24.24 76.8805 24.5067 77.4672 24.72C78.0805 24.9333 78.6672 25.04 79.2272 25.04ZM103.629 29.48C100.269 29.48 97.616 28.56 95.6694 26.72C93.7494 24.88 92.7894 22.4133 92.7894 19.32C92.7894 16.2267 93.656 13.7467 95.3894 11.88C97.1494 10.0133 99.536 9.08 102.549 9.08C105.589 9.08 107.816 10.0933 109.229 12.12C110.669 14.12 111.389 16.4933 111.389 19.24V20.84H98.3094C98.5494 22.12 99.136 23.1467 100.069 23.92C101.003 24.6667 102.229 25.04 103.749 25.04C104.629 25.04 105.416 24.9333 106.109 24.72C106.829 24.48 107.656 24.1467 108.589 23.72L110.109 27.48C109.203 28.1733 108.096 28.68 106.789 29C105.509 29.32 104.456 29.48 103.629 29.48ZM106.469 17.36C106.203 16.0533 105.723 15.0933 105.029 14.48C104.336 13.84 103.469 13.52 102.429 13.52C101.363 13.52 100.469 13.8533 99.7494 14.52C99.0294 15.16 98.5627 16.1067 98.3494 17.36H106.469ZM120.826 0.759999V29H115.666V1.2L120.826 0.759999ZM131.451 0.759999V29H126.291V1.2L131.451 0.759999ZM140.516 23.2C140.516 23.76 140.743 24.2667 141.196 24.72C141.65 25.1467 142.25 25.36 142.996 25.36C143.716 25.36 144.436 25.2 145.156 24.88C145.903 24.56 146.61 24.08 147.276 23.44V20.48H143.356C142.45 20.48 141.743 20.76 141.236 21.32C140.756 21.88 140.516 22.5067 140.516 23.2ZM143.076 29.48C140.703 29.48 138.943 28.9067 137.796 27.76C136.65 26.5867 136.076 25.0667 136.076 23.2C136.076 21.2 136.756 19.6667 138.116 18.6C139.476 17.5333 141.25 17 143.436 17H147.236C147.21 16.0133 146.916 15.2533 146.356 14.72C145.823 14.16 145.076 13.88 144.116 13.88C143.21 13.88 142.223 14.0133 141.156 14.28C140.09 14.52 139.196 14.8133 138.476 15.16L137.076 10.84C137.823 10.3333 138.956 9.92 140.476 9.6C142.023 9.25333 143.21 9.08 144.036 9.08C146.356 9.08 148.343 9.76 149.996 11.12C151.65 12.4533 152.476 14.16 152.476 16.24V29H149.796L148.516 27.36C147.796 27.92 146.943 28.4133 145.956 28.84C144.996 29.2667 144.036 29.48 143.076 29.48Z" fill="black"/>
</svg>
